<svg xmlns="http://www.w3.org/2000/svg" width="30" height="30"><path d="M6.431 4.846c.17-.121.327-.238.482-.339.15-.105.298-.194.432-.278.066-.043.133-.08.195-.116l.18-.104c.028-.017.054-.03.079-.044l.074-.038.133-.071.06-.032.067-.034.12-.061.218-.112c.088-.046.182-.104.265-.165.82-.616 1.005-1.807.413-2.661C8.557-.063 7.412-.255 6.591.36l-.197.148-.108.08-.063.048-.08.062-.177.137-.097.076c-.033.026-.069.053-.1.08l-.205.173c-.071.06-.147.122-.222.191-.152.137-.318.282-.486.447-.172.16-.345.342-.53.53-.178.194-.367.396-.553.617A15.869 15.869 0 0 0 1.621 6.22a15.895 15.895 0 0 0-.832 2.03c-.03.089-.057.178-.085.268l-.081.268c-.052.18-.1.362-.148.543l-.065.274c-.02.092-.045.183-.063.275l-.056.276-.027.138-.024.14a15.757 15.757 0 0 0-.231 2.214c-.01.182-.007.364-.008.545L0 13.327l.003.135.008.268.004.133.008.132.016.264.008.14.012.125.024.247.013.124.016.13.032.257c.006.042.01.085.017.127l.02.124.039.245a15.099 15.099 0 0 0 .688 2.614l.068.186.034.092.036.09.14.347c.1.223.189.435.285.628a14.546 14.546 0 0 0 .889 1.59l.136.21-.1-.23a14.202 14.202 0 0 1-.612-1.7c-.062-.201-.115-.42-.174-.65l-.08-.354-.02-.09-.018-.094-.036-.188a14.448 14.448 0 0 1-.243-2.548l.001-.231v-.116c0-.04.003-.077.004-.115l.009-.23.004-.115.008-.123.024-.373v-.008c0 .019.001.001.001.004l.002-.015.003-.03.006-.06.024-.24.013-.12.016-.12.032-.242c.006-.04.01-.08.017-.12l.02-.121c.028-.161.053-.323.088-.483.128-.646.301-1.281.519-1.9l.04-.116.043-.115.087-.229c.028-.076.062-.15.093-.226l.093-.224c.068-.147.133-.294.202-.439l.107-.214a13.195 13.195 0 0 1 1.079-1.78 12.762 12.762 0 0 1 2.169-2.327c.175-.149.35-.28.514-.407Zm23.558 9.487-.027-.252-.032-.303-.02-.193-.036-.258a56.546 56.546 0 0 0-.085-.599l-.13-.661c-.021-.118-.053-.238-.083-.362l-.094-.38c-.017-.065-.031-.131-.051-.197l-.06-.2-.124-.412-.032-.106-.037-.105-.075-.213c-.05-.143-.101-.29-.155-.436l-.181-.443-.093-.225c-.031-.076-.068-.15-.103-.225l-.212-.456a1.957 1.957 0 0 0-.058-.113l-.06-.114-.12-.228-.121-.23c-.041-.077-.088-.151-.132-.227l-.27-.457a16.958 16.958 0 0 0-1.278-1.761 16.563 16.563 0 0 0-1.54-1.584 16.105 16.105 0 0 0-1.726-1.317 15.654 15.654 0 0 0-1.81-1.002l-.454-.195c-.075-.032-.149-.066-.224-.095L20.341.9l-.222-.082-.11-.041a1.584 1.584 0 0 0-.11-.038L19.46.6c-.072-.022-.142-.047-.214-.066L19.033.48l-.416-.108c-.137-.03-.273-.056-.406-.084l-.196-.04-.097-.02-.097-.014-.377-.057-.181-.028c-.06-.01-.12-.012-.178-.019l-.342-.033c-.11-.01-.218-.024-.323-.026l-.583-.026-.495.003-.211.002c-.066.003-.129.008-.186.01l-.293.019-.243.015.242.027.29.034.184.021.206.035.481.082.56.125c.1.02.201.05.306.08l.322.09c.054.015.11.028.166.048l.169.056.348.117.089.03.088.035.18.071.368.146.372.17.19.087c.064.029.126.064.19.096l.382.199c.033.016.064.034.096.053l.095.056.192.112.193.113c.065.038.127.082.19.123l.384.25c.504.356 1.003.75 1.476 1.185.47.443.911.918 1.321 1.42.398.504.763 1.034 1.093 1.587a14.9 14.9 0 0 1 .823 1.656l.16.415c.025.068.053.135.077.204l.067.205.067.203.033.1a.888.888 0 0 1 .031.1l.111.398c.018.065.038.13.053.194l.044.195.086.377.065.369.032.178.016.088.01.088.044.342.021.164c.008.054.01.108.014.161l.024.31c.008.1.018.197.018.292l.016.528-.01.416-.004.177-.01.19-.017.304-.015.253c-.005.102-.003.216.008.32.11 1.047 1.016 1.802 2.022 1.687 1.006-.115 1.732-1.057 1.62-2.103Zm-4.224 7.975-.148.187c-.052.065-.104.134-.164.203-.118.138-.242.289-.384.441-.137.157-.293.314-.454.482-.166.162-.34.334-.529.502-.375.34-.799.684-1.266 1.014a12.842 12.842 0 0 1-3.244 1.668c-.074.028-.15.05-.226.075l-.227.072c-.152.045-.306.087-.459.13l-.232.056c-.077.018-.153.04-.232.054l-.233.048-.116.024-.117.02c-.617.11-1.24.174-1.866.189-.153.007-.307.002-.458.002h-.114l-.11-.005-.214-.01-.107-.005-.121-.008-.243-.017-.06-.005-.03-.002h-.015c.007-.001-.026 0 .013-.001l-.007-.001-.11-.013-.216-.024a11.946 11.946 0 0 1-3.022-.786l-.155-.064-.077-.031-.074-.034-.29-.13c-.184-.093-.36-.175-.52-.265-.325-.17-.596-.339-.817-.478l-.04-.025c-.036-.025-.07-.049-.106-.072l-.125-.086-.056-.037-.062-.043-.11-.077-.202-.142a1.958 1.958 0 0 0-.27-.156c-.922-.434-2.007-.007-2.424.952-.416.96-.006 2.088.916 2.522l.222.104.121.057.072.034.091.04c.063.03.131.06.203.092l.112.05.058.026.058.023c.311.127.69.278 1.132.42.22.075.458.14.706.213l.387.098.099.025.101.022.205.045a14.462 14.462 0 0 0 3.801.299l.26-.017.13-.009h.009c.044 0 .016 0 .028-.001l.015-.002.03-.003.06-.006.242-.026.121-.013.137-.017.275-.036.136-.019.132-.022c.177-.031.354-.058.53-.097.71-.144 1.408-.342 2.09-.592l.128-.047.127-.05.252-.1c.084-.033.166-.072.25-.107l.247-.109c.163-.077.325-.154.485-.234l.237-.124a14.363 14.363 0 0 0 4.565-3.813c.166-.207.315-.414.457-.61.136-.2.267-.386.38-.57.118-.178.219-.353.314-.512.048-.079.09-.158.131-.232l.118-.213c.142-.272.251-.486.32-.636l.107-.228-.143.206c-.09.135-.233.327-.415.567Z"/></svg>