<svg xmlns="http://www.w3.org/2000/svg" width="136" height="120"><defs><linearGradient id="empty_svg__a" x1="144.588%" x2="29.516%" y1="67.002%" y2="67.42%"><stop offset="0%" stop-color="#E0E5EF" stop-opacity="0"/><stop offset="100%" stop-color="#E0E5EF"/></linearGradient><linearGradient id="empty_svg__b" x1="92.518%" x2="40.792%" y1="98.8%" y2="100%"><stop offset="0%" stop-color="#E0E5EF" stop-opacity="0"/><stop offset="100%" stop-color="#E0E5EF"/></linearGradient><linearGradient id="empty_svg__c" x1="92.039%" x2="40.896%" y1="98.8%" y2="100%"><stop offset="0%" stop-color="#E0E5EF" stop-opacity="0"/><stop offset="100%" stop-color="#E0E5EF"/></linearGradient><linearGradient id="empty_svg__d" x1="81.094%" x2="-85.04%" y1="37.105%" y2="92.455%"><stop offset="0%" stop-color="#E8EBF1" stop-opacity=".238"/><stop offset="100%" stop-color="#A2ABB9"/></linearGradient><linearGradient id="empty_svg__e" x1="67.342%" x2="0%" y1="60.767%" y2="38.397%"><stop offset="0%" stop-color="#A2ABB9"/><stop offset="100%" stop-color="#E7EAF0"/></linearGradient><linearGradient id="empty_svg__f" x1="50.558%" x2="48.392%" y1="106.957%" y2="-11.382%"><stop offset="0%" stop-color="#A2ABB9"/><stop offset="100%" stop-color="#E7EAF0"/></linearGradient><linearGradient id="empty_svg__g" x1="67.342%" x2="0%" y1="65.209%" y2="33.61%"><stop offset="0%" stop-color="#A2ABB9"/><stop offset="100%" stop-color="#E7EAF0"/></linearGradient><linearGradient id="empty_svg__h" x1="73.157%" x2="-30.632%" y1="17.677%" y2="114.034%"><stop offset="0%" stop-color="#A2ABB9"/><stop offset="100%" stop-color="#E7EAF0"/></linearGradient><linearGradient id="empty_svg__i" x1="-13.723%" x2="107.219%" y1="63.94%" y2="68.244%"><stop offset="0%" stop-color="#A2ABB9"/><stop offset="23.185%" stop-color="#A2ABB9"/><stop offset="100%" stop-color="#E7EAF0"/></linearGradient><linearGradient id="empty_svg__j" x1="26.715%" x2="106.62%" y1="33.824%" y2="66.176%"><stop offset="0%" stop-color="#A2ABB9"/><stop offset="100%" stop-color="#E7EAF0"/></linearGradient><linearGradient id="empty_svg__k" x1="20.711%" x2="93.796%" y1="28.446%" y2="63.835%"><stop offset="0%" stop-color="#A2ABB9"/><stop offset="100%" stop-color="#E7EAF0"/></linearGradient><linearGradient id="empty_svg__l" x1="62.056%" x2="15.238%" y1="106.957%" y2="-11.382%"><stop offset="0%" stop-color="#A2ABB9"/><stop offset="100%" stop-color="#E7EAF0"/></linearGradient><linearGradient id="empty_svg__m" x1="93.202%" x2="6.798%" y1="0%" y2="105.258%"><stop offset="0%" stop-color="#A2ABB9"/><stop offset="100%" stop-color="#E7EAF0"/></linearGradient><linearGradient id="empty_svg__n" x1="100%" x2="0%" y1="13.521%" y2="90.315%"><stop offset="0%" stop-color="#A2ABB9"/><stop offset="100%" stop-color="#E7EAF0"/></linearGradient><linearGradient id="empty_svg__o" x1="65.635%" x2="34.365%" y1="0%" y2="105.258%"><stop offset="0%" stop-color="#A2ABB9"/><stop offset="100%" stop-color="#E7EAF0"/></linearGradient><linearGradient id="empty_svg__p" x1="67.342%" x2="0%" y1="68.389%" y2="30.182%"><stop offset="0%" stop-color="#A2ABB9"/><stop offset="100%" stop-color="#E7EAF0"/></linearGradient><linearGradient id="empty_svg__q" x1="100%" x2="0%" y1="39.076%" y2="62.073%"><stop offset="0%" stop-color="#A2ABB9"/><stop offset="100%" stop-color="#E7EAF0"/></linearGradient></defs><g fill="none" fill-rule="evenodd"><path fill="#F3F3FA" fill-rule="nonzero" d="M67.056 0c12.752 0 24.51 4.188 33.932 11.244h-3.79a3.248 3.248 0 0 0-3.248 3.248v.25a3.248 3.248 0 0 0 3.248 3.248h11.289a55.557 55.557 0 0 1 5.809 7.437h5.36a3.498 3.498 0 0 1 3.497 3.498v.195a3.5 3.5 0 0 1-2.53 3.363h-4.935a3.998 3.998 0 0 0-3.998 3.997v1.25a3.998 3.998 0 0 0 3.998 3.998h16.966a4 4 0 0 1 3.023 3.878v.223a3.998 3.998 0 0 1-3.997 3.998h-8.79c.174 1.774.263 3.574.263 5.393 0 30.498-25.115 55.22-56.097 55.22-24.781 0-45.81-15.817-53.234-37.755h-2.105a1.541 1.541 0 0 1-.571-2.972h2.597a3.248 3.248 0 0 0 3.248-3.249v-.25a3.248 3.248 0 0 0-3.248-3.248h-2.237a54.38 54.38 0 0 1-.006-.04H5.96a2.568 2.568 0 1 1 0-5.137h5.058a54.73 54.73 0 0 1-.06-2.569 54.294 54.294 0 0 1 5.018-22.859h-8.98A6.996 6.996 0 0 1 0 25.366v-.39a6.997 6.997 0 0 1 6.593-6.985H38.23a2.499 2.499 0 0 0 0-4.997h-7.324l.184-.152-3.643.001A4.747 4.747 0 0 1 22.7 8.095V7.83a4.747 4.747 0 0 1 4.747-4.748h21.085A56.816 56.816 0 0 1 67.056 0Z" opacity=".602"/><path fill="url(#empty_svg__a)" fill-rule="nonzero" d="M104.04 21.317c0 1.483-1.39 2.67-3.145 2.67H91.17c-1.755-.119-3.217-1.246-3.217-2.789 0-1.009.658-1.899 1.609-2.374-.074-.178-.147-.356-.147-.534 0-1.009.95-1.899 2.194-1.899.512 0 .95.178 1.316.416.877-1.365 2.486-2.315 4.387-2.315 2.633 0 4.753 1.84 4.753 4.095v.237c1.17.416 1.974 1.365 1.974 2.493Z"/><g fill-rule="nonzero"><path fill="url(#empty_svg__b)" d="M14.5 10.84c.03.118.067.242.11.373l.088.35c.03.117.044.212.044.285 0 .41-.11.77-.329 1.084-.22.314-.505.544-.856.69-.131.015-.27.022-.416.022a3.212 3.212 0 0 1-.395.022h-.417l-3.422.044v3.657c0 .54.01 1.084.033 1.632.022.547.047 1.04.076 1.478.03.526.066 1.03.11 1.511H5.967l.066-.854a79.593 79.593 0 0 0 .066-3.68v-3.35a1.23 1.23 0 0 1-.834.329c-.249 0-.464-.059-.647-.176a1.362 1.362 0 0 1-.45-.482l-2.479-.13a2.258 2.258 0 0 1-1.206-.735A1.96 1.96 0 0 1 0 11.585a1.229 1.229 0 0 1 .088-.46l.548-1.27c.03-.32.12-.62.274-.898.154-.277.348-.518.582-.722l3.444-6.373h.022A5.34 5.34 0 0 1 5.945.548C6.325.183 6.815 0 7.415 0A2.5 2.5 0 0 1 8.83.416c.417.278.728.643.932 1.095l2.764 5.41c.498.175.907.481 1.229.92.322.437.483.941.483 1.51 0 .234-.037.482-.11.745l.373.745Zm77.46 0c.029.118.065.242.109.373l.088.35c.029.117.044.212.044.285 0 .41-.11.77-.33 1.084a1.924 1.924 0 0 1-.855.69c-.132.015-.27.022-.417.022a3.212 3.212 0 0 1-.395.022h-.416l-3.423.044v3.657c0 .54.011 1.084.033 1.632.022.547.048 1.04.077 1.478.03.526.066 1.03.11 1.511h-3.16l.066-.854a79.593 79.593 0 0 0 .066-3.68v-3.35a1.23 1.23 0 0 1-.833.329c-.249 0-.465-.059-.648-.176a1.362 1.362 0 0 1-.45-.482l-2.478-.13a2.258 2.258 0 0 1-1.207-.735 1.96 1.96 0 0 1-.482-1.325 1.229 1.229 0 0 1 .087-.46l.549-1.27c.029-.32.12-.62.274-.898.154-.277.347-.518.581-.722l3.445-6.373h.021a5.34 5.34 0 0 1 .988-1.314c.38-.365.87-.548 1.47-.548.526 0 .998.139 1.414.416.417.278.728.643.933 1.095l2.764 5.41c.497.175.907.481 1.228.92.322.437.483.941.483 1.51 0 .234-.036.482-.11.745l.373.745Z" transform="translate(23.238 68.214)"/><path fill="url(#empty_svg__c)" d="M82.767 13.248c.023.091.052.189.086.292l.068.274a.969.969 0 0 1 .035.224c0 .32-.086.603-.257.85a1.504 1.504 0 0 1-.667.54c-.103.012-.21.018-.325.018a2.49 2.49 0 0 1-.308.017h-.325l-2.668.034v2.868c0 .424.009.85.026 1.28.017.429.037.815.06 1.158.022.412.05.807.085 1.185h-2.463l.051-.67a62.762 62.762 0 0 0 .052-2.884v-2.628a.956.956 0 0 1-.65.258.913.913 0 0 1-.505-.138 1.065 1.065 0 0 1-.35-.377l-1.933-.103a1.76 1.76 0 0 1-.94-.576 1.542 1.542 0 0 1-.36-1.227.982.982 0 0 1 .051-.172l.428-.996c.023-.252.094-.487.214-.704.12-.218.27-.407.453-.567l2.685-4.997h.017c.217-.4.473-.744.77-1.03.296-.286.678-.43 1.146-.43.41 0 .778.11 1.103.327a2 2 0 0 1 .727.858l2.155 4.242c.388.137.707.378.958.721.25.344.376.738.376 1.185 0 .183-.028.378-.085.584l.29.584Z" transform="translate(23.238 68.214)"/></g><path fill="#E7EAF0" fill-rule="nonzero" d="M63.84 84.455c15.338 0 29.148 1.25 38.802 3.249 9.442.063 17.044 2.891 17.044 6.37 0 2.758-4.775 5.107-11.457 5.994a68.8 68.8 0 0 1-5.361 1.33c.051.263.077.53.077.797 0 6.072-13.2 10.994-29.484 10.994-14.65 0-26.805-3.984-29.096-9.205-19.548-1.484-33.37-5.138-33.37-9.41 0-5.588 23.66-10.12 52.846-10.12Z"/><g fill-rule="nonzero"><path fill="url(#empty_svg__d)" d="m28.387 61.387 24.044-14.741 5.81 3.587L26.971 68z" opacity=".5" transform="rotate(39 -1.668 132.16)"/><path fill="url(#empty_svg__e)" d="M23.113 48.184c4.404 0 8.037.862 8.556 1.975h.064v3.271c0 1.23-3.783 2.23-8.478 2.249h-.142c-4.761 0-8.62-1.007-8.62-2.249v-3.27h.063c.519-1.113 4.152-1.975 8.557-1.975Z" transform="translate(37.23 44.54)"/><path fill="#A2ABB9" d="m60.769 94.372 1.166 1.026 1.78-1.026V69.114H60.77z"/><path fill="url(#empty_svg__f)" d="M20.113 25.258h4.59v25.6h-4.59z" transform="translate(37.23 44.54)"/><path fill="url(#empty_svg__g)" d="M0 10.131C0 4.536 5.048.001 11.275.001H40.34c6.837 0 12.38 4.98 12.38 11.124v16.12H0V10.13Z" transform="translate(37.23 44.54)"/><path fill="url(#empty_svg__h)" d="M41.71 0c-6.187 0-11.202 5.011-11.202 11.191v16.051h22.406V11.191C52.914 5.011 47.899 0 41.71 0Z" transform="translate(37.23 44.54)"/><path fill="url(#empty_svg__i)" d="M41.71 1.711c-5.107 0-9.25 4.137-9.25 9.241V25.6h18.5V10.952c.002-5.103-4.14-9.24-9.25-9.24Z" transform="translate(37.23 44.54)"/><path fill="url(#empty_svg__j)" d="M50.962 27.243s5.291 3.364 8.27 5.492c2.812 3.836 1.872 8.459-4.89 8.936-5.293.035-9.041-1.35-12.936-4.883l-8.945-9.546V25.6l18.501 1.643Z" transform="translate(37.23 44.54)"/><path fill="url(#empty_svg__k)" d="M58.336 31.234c3.624 3.04 3.037 7.707-1.844 8.473l-1.06.13c-4.997.362-9.597-1.242-13.72-5.252l-9.25-9.536h18.5l7.374 6.185Z" transform="translate(37.23 44.54)"/><path fill="#FFF" d="M62.142 67.964h-4.848c-.317 0-.574-.448-.574-1s.257-1 .574-1h4.848c.317 0 .574.448.574 1s-.257 1-.574 1Zm-.239-5.248h-6.868c-.45 0-.814-.447-.814-.999s.364-1 .814-1h6.868c.45 0 .813.448.813 1s-.364 1-.813 1Zm-.24-5.246h-8.888c-.581 0-1.053-.448-1.053-1s.472-1 1.053-1h8.888c.582 0 1.053.448 1.053 1s-.47 1-1.053 1Z"/></g><path fill="url(#empty_svg__l)" fill-rule="nonzero" d="M5.774 27.847C2.88 26.568.955 28.89 0 34.81c4.98-1.613 6.906-3.934 5.774-6.962Z" transform="translate(24.613 23.245)"/><path stroke="url(#empty_svg__m)" stroke-linecap="round" d="M7.786 26.056c-2.426 1.872-4.007 3.572-4.742 5.101" transform="translate(24.613 23.245)"/><path stroke="url(#empty_svg__n)" stroke-linecap="round" stroke-width="2" d="M27.47 0c-3.974 6.457-7.477 10.36-10.51 11.71-2.517 1.48-5.295.718-5.836-1.009-.357-1.39.278-3.868 2.846-2.493 2.014 1.26 1.027 4.339 0 5.705-1.42 1.767-5.683 4.416-7.958 4.416" transform="translate(24.613 23.245)"/><path stroke="url(#empty_svg__o)" stroke-linecap="round" stroke-width="2" d="M86.474 21.64c.212 5.366-1.858 9.078-6.211 11.133" transform="translate(24.613 23.245)"/><path fill="url(#empty_svg__p)" fill-rule="nonzero" d="M76.877 35.223c-1.23-1.59-2.748-1.59-4.557 0-.957.897-1.588 2.33-3.005 2.33 4.445 1.55 6.966.774 7.562-2.33Z" transform="translate(24.613 23.245)"/><path stroke="url(#empty_svg__q)" stroke-linecap="round" d="M78.795 34.03c-.456.889-2.356 1.777-5.699 2.664" transform="translate(24.613 23.245)"/></g></svg>